<?xml version="1.0" encoding="UTF-8" standalone="no"?>
<!-- Created with Inkscape (http://www.inkscape.org/) -->

<svg
   xmlns:dc="http://purl.org/dc/elements/1.1/"
   xmlns:cc="http://creativecommons.org/ns#"
   xmlns:rdf="http://www.w3.org/1999/02/22-rdf-syntax-ns#"
   xmlns:svg="http://www.w3.org/2000/svg"
   xmlns="http://www.w3.org/2000/svg"
   xmlns:sodipodi="http://sodipodi.sourceforge.net/DTD/sodipodi-0.dtd"
   xmlns:inkscape="http://www.inkscape.org/namespaces/inkscape"
   width="210mm"
   height="297mm"
   viewBox="0 0 210 297"
   version="1.1"
   id="svg8"
   inkscape:version="0.92.3 (2405546, 2018-03-11)"
   sodipodi:docname="logo.svg"
   inkscape:export-filename="C:\Users\Developer\Documents\logo-smaller.png"
   inkscape:export-xdpi="833.93915"
   inkscape:export-ydpi="833.93915">
  <defs
     id="defs2" />
  <sodipodi:namedview
     id="base"
     pagecolor="#ffffff"
     bordercolor="#666666"
     borderopacity="1.0"
     inkscape:pageopacity="0.0"
     inkscape:pageshadow="2"
     inkscape:zoom="7.9195959"
     inkscape:cx="121.83789"
     inkscape:cy="840.53066"
     inkscape:document-units="mm"
     inkscape:current-layer="layer1"
     showgrid="false"
     inkscape:window-width="1920"
     inkscape:window-height="1017"
     inkscape:window-x="1912"
     inkscape:window-y="-8"
     inkscape:window-maximized="1" />
  <metadata
     id="metadata5">
    <rdf:RDF>
      <cc:Work
         rdf:about="">
        <dc:format>image/svg+xml</dc:format>
        <dc:type
           rdf:resource="http://purl.org/dc/dcmitype/StillImage" />
        <dc:title />
      </cc:Work>
    </rdf:RDF>
  </metadata>
  <g
     inkscape:label="Layer 1"
     inkscape:groupmode="layer"
     id="layer1">
    <flowRoot
       xml:space="preserve"
       id="flowRoot3713"
       style="font-style:normal;font-weight:normal;font-size:40px;line-height:1.25;font-family:sans-serif;letter-spacing:0px;word-spacing:0px;fill:#000000;fill-opacity:1;stroke:none"
       transform="matrix(0.26458333,0,0,0.26458333,0.16704346,-0.7683999)"
       inkscape:export-xdpi="926.59906"
       inkscape:export-ydpi="926.59906"><flowRegion
         id="flowRegion3715"><rect
           id="rect3717"
           width="388.57144"
           height="237.14285"
           x="74.285713"
           y="245.37683" /></flowRegion><flowPara
         id="flowPara3719">V</flowPara></flowRoot>    <flowRoot
       xml:space="preserve"
       id="flowRoot3721"
       style="font-style:normal;font-weight:normal;font-size:40px;line-height:1.25;font-family:sans-serif;letter-spacing:0px;word-spacing:0px;fill:#000000;fill-opacity:1;stroke:none"
       transform="matrix(0.26458333,0,0,0.26458333,-23.701794,-89.958333)"
       inkscape:export-xdpi="926.59906"
       inkscape:export-ydpi="926.59906"><flowRegion
         id="flowRegion3723"><rect
           id="rect3725"
           width="171.42857"
           height="168.57143"
           x="185.71428"
           y="585.37683" /></flowRegion><flowPara
         id="flowPara3727" /></flowRoot>    <rect
       id="rect3742"
       width="18.140919"
       height="16.704346"
       x="18.174328"
       y="64.675957"
       style="stroke-width:0.26458332;fill:none" />
    <text
       xml:space="preserve"
       style="font-style:normal;font-weight:normal;font-size:3.61108327px;line-height:1.25;font-family:sans-serif;letter-spacing:0px;word-spacing:0px;fill:#000000;fill-opacity:1;stroke:none;stroke-width:0.09027708"
       x="24.946981"
       y="72.165535"
       id="text3749"
       transform="scale(0.95748821,1.0443993)"><tspan
         sodipodi:role="line"
         id="tspan3747"
         x="24.946981"
         y="72.165535"
         style="stroke-width:0.09027708">Grid</tspan></text>
    <path
       style="stroke-width:0.26196274"
       d="m 26.952177,67.850021 v 0.770048 l 0.515862,5.41e-4 v -0.770589 z m 0.672283,0 v 0.770589 l 0.734954,0.001 v -0.771625 z m 0.891375,0 v 0.771671 l 0.76656,0.001 v -0.772753 z m 0.922444,0 v 0.772752 l 0.71942,5.44e-4 v -0.773296 z m 0.875841,0 v 0.773836 l 0.422116,5.4e-4 v -0.774376 z m -3.361943,0.944838 v 0.769506 l 0.515862,5.41e-4 v -0.769507 z m 0.672283,5.4e-4 v 0.769507 l 0.734954,0.001 v -0.769505 z m 0.891375,10e-4 v 0.769505 l 0.76656,10e-4 v -0.769509 z m 0.922444,0.001 v 0.769509 l 0.71942,5.4e-4 v -0.769506 z m 0.875841,0.001 v 0.769506 l 0.422116,5.43e-4 v -0.769509 z m -3.361943,0.941049 v 0.769508 l 0.515862,5.4e-4 V 69.73999 Z m 0.672283,5.42e-4 v 0.769506 l 0.734954,5.41e-4 v -0.768966 z m 0.891375,10e-4 v 0.76951 l 0.76656,5.4e-4 v -0.768966 z m 0.922444,0.001 v 0.769507 l 0.71942,5.42e-4 v -0.769508 z m 0.875841,0.001 v 0.768965 l 0.422116,5.41e-4 V 69.74353 Z m -3.361943,0.940508 v 0.873946 h 0.515862 v -0.873406 z m 0.672283,5.4e-4 v 0.873406 h 0.734954 v -0.872865 z m 0.891375,0.001 v 0.872323 h 0.76656 v -0.871782 z m 0.922444,10e-4 v 0.871241 h 0.71942 v -0.870417 z m 0.875841,5.42e-4 v 0.870699 h 0.422116 V 70.68712 Z"
       id="rect3751"
       inkscape:connector-curvature="0" />
  </g>
</svg>
