<?xml version="1.0" encoding="UTF-8" standalone="no"?>
<!-- Created with Inkscape (http://www.inkscape.org/) -->

<svg
   xmlns:dc="http://purl.org/dc/elements/1.1/"
   xmlns:cc="http://creativecommons.org/ns#"
   xmlns:rdf="http://www.w3.org/1999/02/22-rdf-syntax-ns#"
   xmlns:svg="http://www.w3.org/2000/svg"
   xmlns="http://www.w3.org/2000/svg"
   xmlns:sodipodi="http://sodipodi.sourceforge.net/DTD/sodipodi-0.dtd"
   xmlns:inkscape="http://www.inkscape.org/namespaces/inkscape"
   viewBox="0 0 16 16"
   inkscape:version="0.91 r13725"
   version="1.1"
   id="svg3336"
   height="16"
   width="16"
   sodipodi:docname="ends with.svg">
  <defs
     id="defs3338" />
  <sodipodi:namedview
     inkscape:window-maximized="1"
     inkscape:window-y="58"
     inkscape:window-x="1912"
     inkscape:window-height="1017"
     inkscape:window-width="1920"
     showguides="true"
     inkscape:document-units="px"
     inkscape:grid-bbox="true"
     showgrid="true"
     inkscape:current-layer="svg3336"
     inkscape:cy="10.677925"
     inkscape:cx="1.7457744"
     inkscape:zoom="32"
     inkscape:pageshadow="2"
     inkscape:pageopacity="0.0"
     borderopacity="1.0"
     bordercolor="#666666"
     pagecolor="#ffffff"
     id="base"
     inkscape:snap-grids="true"
     objecttolerance="10000"
     inkscape:snap-path-mask="false"
     inkscape:snap-path-clip="false"
     inkscape:snap-perpendicular="true"
     inkscape:snap-tangential="true"
     guidetolerance="10000"
     gridtolerance="10000"
     inkscape:snap-bbox="true"
     inkscape:snap-to-guides="false"
     inkscape:snap-nodes="false">
    <inkscape:grid
       type="xygrid"
       id="grid5423"
       dotted="false" />
  </sodipodi:namedview>
  <metadata
     id="metadata3341">
    <rdf:RDF>
      <cc:Work
         rdf:about="">
        <dc:format>image/svg+xml</dc:format>
        <dc:type
           rdf:resource="http://purl.org/dc/dcmitype/StillImage" />
        <dc:title></dc:title>
      </cc:Work>
    </rdf:RDF>
  </metadata>
  <g
     id="layer1"
     inkscape:label="Layer 1"
     inkscape:groupmode="layer" />
  <path
     style="opacity:1;fill:#000000;fill-opacity:1"
     d="m 15.009766,1.0039062 0,13.9824218 -14.009766,0 0,-13.9824218 14.009766,0 z m -4.416016,3.0117188 -1.177734,0 0.064453,3.0859375 -3.3125,-1.8222656 L 5.583985,6.2246094 9.0507816,7.9882812 5.583985,9.7675781 6.1679691,10.712891 9.4707035,8.8808594 9.416016,11.976562 l 1.177734,0 -0.04492,-3.0957026 3.292969,1.8398436 0.59375,-0.9453124 L 10.958985,7.9960938 14.435547,6.2167969 13.841797,5.2714844 10.539063,7.1015625 10.59375,4.015625 Z M 4.978516,5 l -2.9375,0 0,2 2.9375,0 0,-2 z m 0,4 -2.9375,0 0,2 2.9375,0 0,-2 z"
     id="rect6847"
     inkscape:connector-curvature="0" />
</svg>
