<?xml version="1.0" encoding="UTF-8" standalone="no"?>
<!-- Created with Inkscape (http://www.inkscape.org/) -->

<svg
   xmlns:dc="http://purl.org/dc/elements/1.1/"
   xmlns:cc="http://creativecommons.org/ns#"
   xmlns:rdf="http://www.w3.org/1999/02/22-rdf-syntax-ns#"
   xmlns:svg="http://www.w3.org/2000/svg"
   xmlns="http://www.w3.org/2000/svg"
   xmlns:sodipodi="http://sodipodi.sourceforge.net/DTD/sodipodi-0.dtd"
   xmlns:inkscape="http://www.inkscape.org/namespaces/inkscape"
   viewBox="0 0 16 16"
   inkscape:version="0.91 r13725"
   version="1.1"
   id="svg3336"
   height="16"
   width="16"
   sodipodi:docname="showall.svg">
  <defs
     id="defs3338" />
  <sodipodi:namedview
     inkscape:window-maximized="1"
     inkscape:window-y="58"
     inkscape:window-x="1912"
     inkscape:window-height="1017"
     inkscape:window-width="1920"
     showguides="true"
     inkscape:document-units="px"
     inkscape:grid-bbox="true"
     showgrid="true"
     inkscape:current-layer="svg3336"
     inkscape:cy="10.677925"
     inkscape:cx="1.7457744"
     inkscape:zoom="32"
     inkscape:pageshadow="2"
     inkscape:pageopacity="0.0"
     borderopacity="1.0"
     bordercolor="#666666"
     pagecolor="#ffffff"
     id="base"
     inkscape:snap-grids="true"
     objecttolerance="10000"
     inkscape:snap-path-mask="false"
     inkscape:snap-path-clip="false"
     inkscape:snap-perpendicular="true"
     inkscape:snap-tangential="true"
     guidetolerance="10000"
     gridtolerance="10000"
     inkscape:snap-bbox="true"
     inkscape:snap-to-guides="false"
     inkscape:snap-nodes="false">
    <inkscape:grid
       type="xygrid"
       id="grid5423"
       dotted="false" />
  </sodipodi:namedview>
  <metadata
     id="metadata3341">
    <rdf:RDF>
      <cc:Work
         rdf:about="">
        <dc:format>image/svg+xml</dc:format>
        <dc:type
           rdf:resource="http://purl.org/dc/dcmitype/StillImage" />
        <dc:title></dc:title>
      </cc:Work>
    </rdf:RDF>
  </metadata>
  <g
     id="layer1"
     inkscape:label="Layer 1"
     inkscape:groupmode="layer" />
  <path
     style="opacity:1;fill:#000000;fill-opacity:1"
     d="M 1 1.0039062 L 1 14.986328 L 15.009766 14.986328 L 15.009766 1.0039062 L 1 1.0039062 z M 7.984375 1.96875 A 5.9531245 6.0156245 0 0 1 10.578125 2.578125 L 8.375 3.4375 L 6.03125 5.15625 L 5.9394531 6.2167969 L 5.84375 6.15625 L 4.3867188 4.7519531 L 5.921875 6.4277344 L 5.8125 7.6875 L 5.6816406 9.8027344 L 7.1992188 7.8242188 L 10.455078 11.380859 L 9.09375 9.1875 L 8.8125 7.78125 L 7.6796875 7.1972656 L 11.033203 2.8261719 A 5.9531245 6.0156245 0 0 1 12.716797 4.3417969 L 11.09375 6.25 L 10.5625 9.6875 L 10.552734 9.8496094 L 12.914062 4.6210938 A 5.9531245 6.0156245 0 0 1 13.9375 7.984375 A 5.9531245 6.0156245 0 0 1 11.669922 12.708984 L 10.455078 11.380859 L 10.625 11.65625 L 11.642578 12.728516 A 5.9531245 6.0156245 0 0 1 7.984375 14 A 5.9531245 6.0156245 0 0 1 3.9492188 12.398438 L 4.5 12.03125 L 5.65625 10.21875 L 5.6816406 9.8027344 L 3.7988281 12.257812 A 5.9531245 6.0156245 0 0 1 2.03125 7.984375 A 5.9531245 6.0156245 0 0 1 3.5664062 3.9628906 L 4.3867188 4.7519531 L 3.6152344 3.9101562 A 5.9531245 6.0156245 0 0 1 7.984375 1.96875 z M 10.552734 9.8496094 L 10.1875 10.65625 L 10.5 10.65625 L 10.552734 9.8496094 z "
     id="rect6847" />
</svg>
